<?xml version="1.0" encoding="UTF-8"?>
<svg width="1093" height="151" viewBox="0 0 1093 151" fill="none" xmlns="http://www.w3.org/2000/svg">
<path d="M192.224 95.944C192.224 87.0693 194.144 79.176 197.984 72.264C201.824 65.2667 207.157 59.848 213.984 56.008C220.896 52.0827 228.704 50.12 237.408 50.12C248.075 50.12 257.205 52.936 264.8 58.568C272.395 64.2 277.472 71.88 280.032 81.608H255.968C254.176 77.8533 251.616 74.9947 248.288 73.032C245.045 71.0693 241.333 70.088 237.152 70.088C230.411 70.088 224.949 72.4347 220.768 77.128C216.587 81.8213 214.496 88.0933 214.496 95.944C214.496 103.795 216.587 110.067 220.768 114.76C224.949 119.453 230.411 121.8 237.152 121.8C241.333 121.8 245.045 120.819 248.288 118.856C251.616 116.893 254.176 114.035 255.968 110.28H280.032C277.472 120.008 272.395 127.688 264.8 133.32C257.205 138.867 248.075 141.64 237.408 141.64C228.704 141.64 220.896 139.72 213.984 135.88C207.157 131.955 201.824 126.536 197.984 119.624C194.144 112.712 192.224 104.819 192.224 95.944ZM325.948 142.024C318.951 142.024 312.636 140.531 307.004 137.544C301.457 134.557 297.063 130.291 293.82 124.744C290.663 119.197 289.084 112.712 289.084 105.288C289.084 97.9493 290.705 91.5067 293.948 85.96C297.191 80.328 301.628 76.0187 307.26 73.032C312.892 70.0453 319.207 68.552 326.204 68.552C333.201 68.552 339.516 70.0453 345.148 73.032C350.78 76.0187 355.217 80.328 358.46 85.96C361.703 91.5067 363.324 97.9493 363.324 105.288C363.324 112.627 361.66 119.112 358.332 124.744C355.089 130.291 350.609 134.557 344.892 137.544C339.26 140.531 332.945 142.024 325.948 142.024ZM325.948 123.08C330.129 123.08 333.671 121.544 336.572 118.472C339.559 115.4 341.052 111.005 341.052 105.288C341.052 99.5707 339.601 95.176 336.7 92.104C333.884 89.032 330.385 87.496 326.204 87.496C321.937 87.496 318.396 89.032 315.58 92.104C312.764 95.0907 311.356 99.4853 311.356 105.288C311.356 111.005 312.721 115.4 315.452 118.472C318.268 121.544 321.767 123.08 325.948 123.08ZM370.584 105.16C370.584 97.8213 371.949 91.3787 374.68 85.832C377.496 80.2853 381.293 76.0187 386.072 73.032C390.851 70.0453 396.184 68.552 402.072 68.552C406.765 68.552 411.032 69.5333 414.872 71.496C418.797 73.4587 421.869 76.104 424.088 79.432V46.28H445.976V141H424.088V130.76C422.04 134.173 419.096 136.904 415.256 138.952C411.501 141 407.107 142.024 402.072 142.024C396.184 142.024 390.851 140.531 386.072 137.544C381.293 134.472 377.496 130.163 374.68 124.616C371.949 118.984 370.584 112.499 370.584 105.16ZM424.088 105.288C424.088 99.8267 422.552 95.5173 419.48 92.36C416.493 89.2027 412.824 87.624 408.472 87.624C404.12 87.624 400.408 89.2027 397.336 92.36C394.349 95.432 392.856 99.6987 392.856 105.16C392.856 110.621 394.349 114.973 397.336 118.216C400.408 121.373 404.12 122.952 408.472 122.952C412.824 122.952 416.493 121.373 419.48 118.216C422.552 115.059 424.088 110.749 424.088 105.288ZM529.139 104.136C529.139 106.184 529.011 108.317 528.755 110.536H479.219C479.56 114.973 480.968 118.387 483.443 120.776C486.003 123.08 489.118 124.232 492.787 124.232C498.248 124.232 502.046 121.928 504.179 117.32H527.475C526.28 122.013 524.104 126.237 520.947 129.992C517.875 133.747 513.992 136.691 509.299 138.824C504.606 140.957 499.358 142.024 493.555 142.024C486.558 142.024 480.328 140.531 474.867 137.544C469.406 134.557 465.139 130.291 462.067 124.744C458.995 119.197 457.459 112.712 457.459 105.288C457.459 97.864 458.952 91.3787 461.939 85.832C465.011 80.2853 469.278 76.0187 474.739 73.032C480.2 70.0453 486.472 68.552 493.555 68.552C500.467 68.552 506.611 70.0027 511.987 72.904C517.363 75.8053 521.544 79.944 524.531 85.32C527.603 90.696 529.139 96.968 529.139 104.136ZM506.739 98.376C506.739 94.6213 505.459 91.6347 502.899 89.416C500.339 87.1973 497.139 86.088 493.299 86.088C489.63 86.088 486.515 87.1547 483.955 89.288C481.48 91.4213 479.944 94.4507 479.347 98.376H506.739ZM583.182 141.896C574.734 141.896 566.969 139.933 559.886 136.008C552.889 132.083 547.299 126.621 543.118 119.624C539.022 112.541 536.974 104.605 536.974 95.816C536.974 87.0267 539.022 79.1333 543.118 72.136C547.299 65.1387 552.889 59.6773 559.886 55.752C566.969 51.8267 574.734 49.864 583.182 49.864C591.63 49.864 599.353 51.8267 606.35 55.752C613.433 59.6773 618.979 65.1387 622.99 72.136C627.086 79.1333 629.134 87.0267 629.134 95.816C629.134 104.605 627.086 112.541 622.99 119.624C618.894 126.621 613.347 132.083 606.35 136.008C599.353 139.933 591.63 141.896 583.182 141.896ZM583.182 121.928C590.35 121.928 596.067 119.539 600.334 114.76C604.686 109.981 606.862 103.667 606.862 95.816C606.862 87.88 604.686 81.5653 600.334 76.872C596.067 72.0933 590.35 69.704 583.182 69.704C575.929 69.704 570.126 72.0507 565.774 76.744C561.507 81.4373 559.374 87.7947 559.374 95.816C559.374 103.752 561.507 110.109 565.774 114.888C570.126 119.581 575.929 121.928 583.182 121.928ZM684.831 68.808C693.194 68.808 699.85 71.5387 704.799 77C709.834 82.376 712.351 89.8 712.351 99.272V141H690.591V102.216C690.591 97.4373 689.354 93.7253 686.879 91.08C684.404 88.4347 681.076 87.112 676.895 87.112C672.714 87.112 669.386 88.4347 666.911 91.08C664.436 93.7253 663.199 97.4373 663.199 102.216V141H641.311V69.576H663.199V79.048C665.418 75.8907 668.404 73.416 672.159 71.624C675.914 69.7467 680.138 68.808 684.831 68.808ZM751.742 123.464C754.643 121.16 755.966 120.093 755.71 120.264C764.073 113.352 770.643 107.677 775.422 103.24C780.286 98.8027 784.382 94.152 787.71 89.288C791.038 84.424 792.702 79.688 792.702 75.08C792.702 71.5813 791.891 68.8507 790.27 66.888C788.649 64.9253 786.217 63.944 782.974 63.944C779.731 63.944 777.171 65.1813 775.294 67.656C773.502 70.0453 772.606 73.4587 772.606 77.896H751.486C751.657 70.6427 753.193 64.584 756.094 59.72C759.081 54.856 762.963 51.272 767.742 48.968C772.606 46.664 777.982 45.512 783.87 45.512C794.025 45.512 801.662 48.1147 806.782 53.32C811.987 58.5253 814.59 65.3093 814.59 73.672C814.59 82.8027 811.475 91.2933 805.246 99.144C799.017 106.909 791.081 114.504 781.438 121.928H815.998V139.72H751.742V123.464ZM825.635 93C825.635 78.3227 828.451 66.76 834.083 58.312C839.8 49.864 848.974 45.64 861.603 45.64C874.232 45.64 883.363 49.864 888.995 58.312C894.712 66.76 897.571 78.3227 897.571 93C897.571 107.848 894.712 119.496 888.995 127.944C883.363 136.392 874.232 140.616 861.603 140.616C848.974 140.616 839.8 136.392 834.083 127.944C828.451 119.496 825.635 107.848 825.635 93ZM876.067 93C876.067 84.3813 875.128 77.768 873.251 73.16C871.374 68.4667 867.491 66.12 861.603 66.12C855.715 66.12 851.832 68.4667 849.955 73.16C848.078 77.768 847.139 84.3813 847.139 93C847.139 98.8027 847.48 103.624 848.163 107.464C848.846 111.219 850.211 114.291 852.259 116.68C854.392 118.984 857.507 120.136 861.603 120.136C865.699 120.136 868.771 118.984 870.819 116.68C872.952 114.291 874.36 111.219 875.043 107.464C875.726 103.624 876.067 98.8027 876.067 93ZM908.367 123.464C911.268 121.16 912.591 120.093 912.335 120.264C920.698 113.352 927.268 107.677 932.047 103.24C936.911 98.8027 941.007 94.152 944.335 89.288C947.663 84.424 949.327 79.688 949.327 75.08C949.327 71.5813 948.516 68.8507 946.895 66.888C945.274 64.9253 942.842 63.944 939.599 63.944C936.356 63.944 933.796 65.1813 931.919 67.656C930.127 70.0453 929.231 73.4587 929.231 77.896H908.111C908.282 70.6427 909.818 64.584 912.719 59.72C915.706 54.856 919.588 51.272 924.367 48.968C929.231 46.664 934.607 45.512 940.495 45.512C950.65 45.512 958.287 48.1147 963.407 53.32C968.612 58.5253 971.215 65.3093 971.215 73.672C971.215 82.8027 968.1 91.2933 961.871 99.144C955.642 106.909 947.706 114.504 938.063 121.928H972.623V139.72H908.367V123.464ZM1048.05 66.632H1008.12V84.296C1009.82 82.4187 1012.21 80.8827 1015.28 79.688C1018.36 78.4933 1021.68 77.896 1025.27 77.896C1031.67 77.896 1036.96 79.3467 1041.14 82.248C1045.41 85.1493 1048.52 88.904 1050.48 93.512C1052.45 98.12 1053.43 103.112 1053.43 108.488C1053.43 118.472 1050.61 126.408 1044.98 132.296C1039.35 138.099 1031.41 141 1021.17 141C1014.35 141 1008.41 139.848 1003.38 137.544C998.345 135.155 994.463 131.869 991.732 127.688C989.001 123.507 987.508 118.685 987.252 113.224H1008.63C1009.14 115.869 1010.38 118.088 1012.34 119.88C1014.3 121.587 1016.99 122.44 1020.4 122.44C1024.41 122.44 1027.4 121.16 1029.36 118.6C1031.33 116.04 1032.31 112.627 1032.31 108.36C1032.31 104.179 1031.28 100.979 1029.24 98.76C1027.19 96.5413 1024.2 95.432 1020.28 95.432C1017.37 95.432 1014.99 96.1573 1013.11 97.608C1011.23 98.9733 1009.99 100.808 1009.4 103.112H988.276V47.432H1048.05V66.632Z" fill="url(#paint0_linear_409_193)"/>
<path d="M75.9348 150.412H119.139L174.944 89.2954L119.139 28.1786L75.9348 28.1786L131.74 89.2954L75.9348 150.412Z" fill="url(#paint1_linear_409_193)"/>
<path d="M0.000223637 150.412V89.2058L0.000223637 27.9994H71.5162V55.4213H32.076V123.349H71.5162V150.412L0.000223637 150.412Z" fill="url(#paint2_linear_409_193)"/>
<defs>
<linearGradient id="paint0_linear_409_193" x1="303.068" y1="-4.59184" x2="880.989" y2="455.808" gradientUnits="userSpaceOnUse">
<stop stop-color="#FFA800"/>
<stop offset="0.446128" stop-color="#FF7A00"/>
<stop offset="0.86" stop-color="#E16C01"/>
<stop offset="1" stop-color="#A24D00"/>
</linearGradient>
<linearGradient id="paint1_linear_409_193" x1="154.04" y1="154.159" x2="-12.3462" y2="124.653" gradientUnits="userSpaceOnUse">
<stop stop-color="#FFA800"/>
<stop offset="0.446128" stop-color="#FF7A00"/>
<stop offset="0.86" stop-color="#E16C01"/>
<stop offset="1" stop-color="#A24D00"/>
</linearGradient>
<linearGradient id="paint2_linear_409_193" x1="154.04" y1="154.159" x2="-12.3462" y2="124.653" gradientUnits="userSpaceOnUse">
<stop stop-color="#FFA800"/>
<stop offset="0.446128" stop-color="#FF7A00"/>
<stop offset="0.86" stop-color="#E16C01"/>
<stop offset="1" stop-color="#A24D00"/>
</linearGradient>
</defs>
</svg>
