<svg width="606" height="180" viewBox="0 0 606 180" fill="none" xmlns="http://www.w3.org/2000/svg">
<path d="M163.46 64.4879H170.33C172.55 64.4879 174.49 64.9379 176.15 65.8379C177.81 66.7379 179.08 68.0079 179.96 69.6479C180.86 71.2679 181.31 73.1279 181.31 75.2279C181.31 77.3279 180.86 79.1979 179.96 80.8379C179.08 82.4579 177.81 83.7179 176.15 84.6179C174.49 85.5179 172.55 85.9679 170.33 85.9679H163.46V64.4879ZM170.27 82.7579C172.67 82.7579 174.54 82.0979 175.88 80.7779C177.24 79.4379 177.92 77.5879 177.92 75.2279C177.92 72.8879 177.24 71.0479 175.88 69.7079C174.54 68.3679 172.67 67.6979 170.27 67.6979H166.82V82.7579H170.27ZM191.15 86.4479C189.65 86.4479 188.3 86.0979 187.1 85.3979C185.92 84.6979 184.99 83.7379 184.31 82.5179C183.65 81.2779 183.32 79.8879 183.32 78.3479C183.32 76.8879 183.64 75.5379 184.28 74.2979C184.94 73.0379 185.85 72.0379 187.01 71.2979C188.17 70.5579 189.49 70.1879 190.97 70.1879C192.51 70.1879 193.84 70.5279 194.96 71.2079C196.1 71.8879 196.96 72.8179 197.54 73.9979C198.14 75.1779 198.44 76.5079 198.44 77.9879C198.44 78.2679 198.41 78.6179 198.35 79.0379H186.62C186.74 80.4579 187.24 81.5579 188.12 82.3379C189.02 83.0979 190.06 83.4779 191.24 83.4779C192.18 83.4779 192.99 83.2679 193.67 82.8479C194.37 82.4079 194.93 81.8179 195.35 81.0779L198.14 82.3979C197.42 83.6579 196.48 84.6479 195.32 85.3679C194.16 86.0879 192.77 86.4479 191.15 86.4479ZM195.08 76.5179C195.04 75.9779 194.87 75.4479 194.57 74.9279C194.27 74.3879 193.81 73.9379 193.19 73.5779C192.59 73.2179 191.85 73.0379 190.97 73.0379C189.91 73.0379 189.01 73.3579 188.27 73.9979C187.55 74.6179 187.05 75.4579 186.77 76.5179H195.08ZM199.442 70.6679H203.132L207.362 81.7079H207.482L211.802 70.6679H215.402L209.042 85.9679H205.742L199.442 70.6679ZM224.08 86.4479C222.58 86.4479 221.23 86.0979 220.03 85.3979C218.85 84.6979 217.92 83.7379 217.24 82.5179C216.58 81.2779 216.25 79.8879 216.25 78.3479C216.25 76.8879 216.57 75.5379 217.21 74.2979C217.87 73.0379 218.78 72.0379 219.94 71.2979C221.1 70.5579 222.42 70.1879 223.9 70.1879C225.44 70.1879 226.77 70.5279 227.89 71.2079C229.03 71.8879 229.89 72.8179 230.47 73.9979C231.07 75.1779 231.37 76.5079 231.37 77.9879C231.37 78.2679 231.34 78.6179 231.28 79.0379H219.55C219.67 80.4579 220.17 81.5579 221.05 82.3379C221.95 83.0979 222.99 83.4779 224.17 83.4779C225.11 83.4779 225.92 83.2679 226.6 82.8479C227.3 82.4079 227.86 81.8179 228.28 81.0779L231.07 82.3979C230.35 83.6579 229.41 84.6479 228.25 85.3679C227.09 86.0879 225.7 86.4479 224.08 86.4479ZM228.01 76.5179C227.97 75.9779 227.8 75.4479 227.5 74.9279C227.2 74.3879 226.74 73.9379 226.12 73.5779C225.52 73.2179 224.78 73.0379 223.9 73.0379C222.84 73.0379 221.94 73.3579 221.2 73.9979C220.48 74.6179 219.98 75.4579 219.7 76.5179H228.01ZM234.375 64.4879H237.675V85.9679H234.375V64.4879ZM248.576 86.4479C247.036 86.4479 245.656 86.0979 244.436 85.3979C243.216 84.6779 242.266 83.6979 241.586 82.4579C240.906 81.2179 240.566 79.8379 240.566 78.3179C240.566 76.7979 240.906 75.4179 241.586 74.1779C242.266 72.9379 243.216 71.9679 244.436 71.2679C245.656 70.5479 247.036 70.1879 248.576 70.1879C250.116 70.1879 251.496 70.5479 252.716 71.2679C253.936 71.9879 254.886 72.9679 255.566 74.2079C256.246 75.4479 256.586 76.8179 256.586 78.3179C256.586 79.8379 256.246 81.2179 255.566 82.4579C254.886 83.6979 253.936 84.6779 252.716 85.3979C251.496 86.0979 250.116 86.4479 248.576 86.4479ZM248.576 83.4179C249.416 83.4179 250.196 83.2179 250.916 82.8179C251.636 82.3979 252.206 81.8079 252.626 81.0479C253.066 80.2679 253.286 79.3579 253.286 78.3179C253.286 77.2779 253.066 76.3779 252.626 75.6179C252.206 74.8579 251.636 74.2779 250.916 73.8779C250.196 73.4579 249.416 73.2479 248.576 73.2479C247.736 73.2479 246.956 73.4579 246.236 73.8779C245.516 74.2779 244.936 74.8579 244.496 75.6179C244.076 76.3779 243.866 77.2779 243.866 78.3179C243.866 79.3579 244.076 80.2679 244.496 81.0479C244.936 81.8079 245.516 82.3979 246.236 82.8179C246.956 83.2179 247.736 83.4179 248.576 83.4179ZM259.363 70.6679H262.513V72.6779H262.663C263.103 71.9779 263.753 71.3879 264.613 70.9079C265.473 70.4279 266.443 70.1879 267.523 70.1879C268.903 70.1879 270.153 70.5379 271.273 71.2379C272.393 71.9379 273.273 72.9079 273.913 74.1479C274.573 75.3679 274.903 76.7579 274.903 78.3179C274.903 79.8779 274.573 81.2779 273.913 82.5179C273.273 83.7379 272.393 84.6979 271.273 85.3979C270.153 86.0979 268.903 86.4479 267.523 86.4479C266.443 86.4479 265.473 86.2079 264.613 85.7279C263.753 85.2479 263.103 84.6679 262.663 83.9879H262.513L262.663 86.1179V92.4479H259.363V70.6679ZM267.043 83.4179C267.843 83.4179 268.593 83.2079 269.293 82.7879C269.993 82.3679 270.553 81.7679 270.973 80.9879C271.393 80.2079 271.603 79.3179 271.603 78.3179C271.603 77.3179 271.393 76.4379 270.973 75.6779C270.553 74.8979 269.993 74.2979 269.293 73.8779C268.593 73.4579 267.843 73.2479 267.043 73.2479C266.243 73.2479 265.493 73.4579 264.793 73.8779C264.113 74.2979 263.563 74.8979 263.143 75.6779C262.723 76.4379 262.513 77.3179 262.513 78.3179C262.513 79.3179 262.723 80.2079 263.143 80.9879C263.563 81.7679 264.113 82.3679 264.793 82.7879C265.493 83.2079 266.243 83.4179 267.043 83.4179ZM284.9 86.4479C283.4 86.4479 282.05 86.0979 280.85 85.3979C279.67 84.6979 278.74 83.7379 278.06 82.5179C277.4 81.2779 277.07 79.8879 277.07 78.3479C277.07 76.8879 277.39 75.5379 278.03 74.2979C278.69 73.0379 279.6 72.0379 280.76 71.2979C281.92 70.5579 283.24 70.1879 284.72 70.1879C286.26 70.1879 287.59 70.5279 288.71 71.2079C289.85 71.8879 290.71 72.8179 291.29 73.9979C291.89 75.1779 292.19 76.5079 292.19 77.9879C292.19 78.2679 292.16 78.6179 292.1 79.0379H280.37C280.49 80.4579 280.99 81.5579 281.87 82.3379C282.77 83.0979 283.81 83.4779 284.99 83.4779C285.93 83.4779 286.74 83.2679 287.42 82.8479C288.12 82.4079 288.68 81.8179 289.1 81.0779L291.89 82.3979C291.17 83.6579 290.23 84.6479 289.07 85.3679C287.91 86.0879 286.52 86.4479 284.9 86.4479ZM288.83 76.5179C288.79 75.9779 288.62 75.4479 288.32 74.9279C288.02 74.3879 287.56 73.9379 286.94 73.5779C286.34 73.2179 285.6 73.0379 284.72 73.0379C283.66 73.0379 282.76 73.3579 282.02 73.9979C281.3 74.6179 280.8 75.4579 280.52 76.5179H288.83ZM295.195 70.6679H298.345V72.9179H298.495C298.835 72.1379 299.425 71.4979 300.265 70.9979C301.105 70.4779 301.995 70.2179 302.935 70.2179C303.675 70.2179 304.295 70.3179 304.795 70.5179V73.9379C303.915 73.6179 303.125 73.4579 302.425 73.4579C301.665 73.4579 300.985 73.6579 300.385 74.0579C299.805 74.4579 299.345 74.9979 299.005 75.6779C298.665 76.3379 298.495 77.0679 298.495 77.8679V85.9679H295.195V70.6679ZM320.197 86.4479C318.417 86.4479 316.817 85.9279 315.397 84.8879C313.977 83.8479 312.997 82.3879 312.457 80.5079L315.637 79.2179C315.957 80.3979 316.517 81.3679 317.317 82.1279C318.137 82.8679 319.117 83.2379 320.257 83.2379C321.317 83.2379 322.217 82.9679 322.957 82.4279C323.697 81.8679 324.067 81.1079 324.067 80.1479C324.067 79.2679 323.737 78.5479 323.077 77.9879C322.437 77.4079 321.307 76.8279 319.687 76.2479L318.337 75.7679C316.897 75.2679 315.687 74.5479 314.707 73.6079C313.727 72.6679 313.237 71.4279 313.237 69.8879C313.237 68.8279 313.527 67.8479 314.107 66.9479C314.687 66.0479 315.487 65.3379 316.507 64.8179C317.547 64.2779 318.717 64.0079 320.017 64.0079C321.897 64.0079 323.397 64.4679 324.517 65.3879C325.637 66.2879 326.387 67.3079 326.767 68.4479L323.737 69.7379C323.517 69.0579 323.097 68.4579 322.477 67.9379C321.857 67.4179 321.057 67.1579 320.077 67.1579C319.097 67.1579 318.267 67.4079 317.587 67.9079C316.927 68.4079 316.597 69.0479 316.597 69.8279C316.597 70.5679 316.897 71.1779 317.497 71.6579C318.097 72.1379 319.037 72.5979 320.317 73.0379L321.667 73.4879C323.507 74.1279 324.927 74.9679 325.927 76.0079C326.947 77.0279 327.457 78.3979 327.457 80.1179C327.457 81.5179 327.097 82.6979 326.377 83.6579C325.657 84.5979 324.737 85.2979 323.617 85.7579C322.517 86.2179 321.377 86.4479 320.197 86.4479ZM336.27 86.2079C335.59 86.2079 334.95 86.0979 334.35 85.8779C333.75 85.6579 333.26 85.3679 332.88 85.0079C332.02 84.1479 331.59 82.9779 331.59 81.4979V73.5779H328.92V70.6679H331.59V66.3479H334.89V70.6679H338.61V73.5779H334.89V80.7779C334.89 81.5979 335.05 82.1779 335.37 82.5179C335.67 82.9179 336.19 83.1179 336.93 83.1179C337.27 83.1179 337.57 83.0779 337.83 82.9979C338.09 82.8979 338.37 82.7479 338.67 82.5479V85.7579C338.01 86.0579 337.21 86.2079 336.27 86.2079ZM347.328 86.4479C345.468 86.4479 344.048 85.8979 343.068 84.7979C342.108 83.6779 341.628 82.1279 341.628 80.1479V70.6679H344.928V79.6979C344.928 80.9379 345.218 81.8679 345.798 82.4879C346.398 83.1079 347.178 83.4179 348.138 83.4179C348.918 83.4179 349.608 83.2179 350.208 82.8179C350.808 82.3979 351.268 81.8479 351.588 81.1679C351.908 80.4879 352.068 79.7579 352.068 78.9779V70.6679H355.368V85.9679H352.248V83.9879H352.068C351.648 84.7079 350.998 85.2979 350.118 85.7579C349.238 86.2179 348.308 86.4479 347.328 86.4479ZM365.603 86.4479C364.223 86.4479 362.973 86.0979 361.853 85.3979C360.733 84.6979 359.843 83.7379 359.183 82.5179C358.543 81.2779 358.223 79.8779 358.223 78.3179C358.223 76.7579 358.543 75.3679 359.183 74.1479C359.843 72.9079 360.733 71.9379 361.853 71.2379C362.973 70.5379 364.223 70.1879 365.603 70.1879C366.683 70.1879 367.653 70.4279 368.513 70.9079C369.373 71.3879 370.023 71.9779 370.463 72.6779H370.613L370.463 70.5179V64.4879H373.763V85.9679H370.613V83.9879H370.463C370.023 84.6679 369.373 85.2479 368.513 85.7279C367.653 86.2079 366.683 86.4479 365.603 86.4479ZM366.083 83.4179C366.883 83.4179 367.623 83.2079 368.303 82.7879C369.003 82.3679 369.563 81.7679 369.983 80.9879C370.403 80.2079 370.613 79.3179 370.613 78.3179C370.613 77.3179 370.403 76.4379 369.983 75.6779C369.563 74.8979 369.003 74.2979 368.303 73.8779C367.623 73.4579 366.883 73.2479 366.083 73.2479C365.283 73.2479 364.533 73.4579 363.833 73.8779C363.133 74.2979 362.573 74.8979 362.153 75.6779C361.733 76.4379 361.523 77.3179 361.523 78.3179C361.523 79.3179 361.733 80.2079 362.153 80.9879C362.573 81.7679 363.133 82.3679 363.833 82.7879C364.533 83.2079 365.283 83.4179 366.083 83.4179ZM384.451 86.4479C382.951 86.4479 381.601 86.0979 380.401 85.3979C379.221 84.6979 378.291 83.7379 377.611 82.5179C376.951 81.2779 376.621 79.8879 376.621 78.3479C376.621 76.8879 376.941 75.5379 377.581 74.2979C378.241 73.0379 379.151 72.0379 380.311 71.2979C381.471 70.5579 382.791 70.1879 384.271 70.1879C385.811 70.1879 387.141 70.5279 388.261 71.2079C389.401 71.8879 390.261 72.8179 390.841 73.9979C391.441 75.1779 391.741 76.5079 391.741 77.9879C391.741 78.2679 391.711 78.6179 391.651 79.0379H379.921C380.041 80.4579 380.541 81.5579 381.421 82.3379C382.321 83.0979 383.361 83.4779 384.541 83.4779C385.481 83.4779 386.291 83.2679 386.971 82.8479C387.671 82.4079 388.231 81.8179 388.651 81.0779L391.441 82.3979C390.721 83.6579 389.781 84.6479 388.621 85.3679C387.461 86.0879 386.071 86.4479 384.451 86.4479ZM388.381 76.5179C388.341 75.9779 388.171 75.4479 387.871 74.9279C387.571 74.3879 387.111 73.9379 386.491 73.5779C385.891 73.2179 385.151 73.0379 384.271 73.0379C383.211 73.0379 382.311 73.3579 381.571 73.9979C380.851 74.6179 380.351 75.4579 380.071 76.5179H388.381ZM394.746 70.6679H397.896V72.6779H398.046C398.486 71.9579 399.136 71.3679 399.996 70.9079C400.876 70.4279 401.806 70.1879 402.786 70.1879C404.646 70.1879 406.056 70.7379 407.016 71.8379C407.996 72.9179 408.486 74.3979 408.486 76.2779V85.9679H405.186V76.7279C405.186 75.5279 404.886 74.6479 404.286 74.0879C403.706 73.5279 402.896 73.2479 401.856 73.2479C401.116 73.2479 400.456 73.4579 399.876 73.8779C399.296 74.2779 398.846 74.8179 398.526 75.4979C398.206 76.1779 398.046 76.9079 398.046 77.6879V85.9679H394.746V70.6679ZM417.715 86.2079C417.035 86.2079 416.395 86.0979 415.795 85.8779C415.195 85.6579 414.705 85.3679 414.325 85.0079C413.465 84.1479 413.035 82.9779 413.035 81.4979V73.5779H410.365V70.6679H413.035V66.3479H416.335V70.6679H420.055V73.5779H416.335V80.7779C416.335 81.5979 416.495 82.1779 416.815 82.5179C417.115 82.9179 417.635 83.1179 418.375 83.1179C418.715 83.1179 419.015 83.0779 419.275 82.9979C419.535 82.8979 419.815 82.7479 420.115 82.5479V85.7579C419.455 86.0579 418.655 86.2079 417.715 86.2079ZM440.319 86.4479C438.239 86.4479 436.339 85.9579 434.619 84.9779C432.899 83.9979 431.549 82.6479 430.569 80.9279C429.589 79.2079 429.099 77.3079 429.099 75.2279C429.099 73.1479 429.589 71.2479 430.569 69.5279C431.549 67.8079 432.899 66.4579 434.619 65.4779C436.339 64.4979 438.239 64.0079 440.319 64.0079C441.939 64.0079 443.409 64.3079 444.729 64.9079C446.069 65.5079 447.249 66.3779 448.269 67.5179L445.869 69.8279C445.129 68.9479 444.309 68.2979 443.409 67.8779C442.509 67.4379 441.479 67.2179 440.319 67.2179C438.879 67.2179 437.559 67.5479 436.359 68.2079C435.179 68.8679 434.239 69.8079 433.539 71.0279C432.839 72.2279 432.489 73.6279 432.489 75.2279C432.489 76.8279 432.839 78.2379 433.539 79.4579C434.239 80.6579 435.179 81.5879 436.359 82.2479C437.559 82.9079 438.879 83.2379 440.319 83.2379C442.719 83.2379 444.759 82.2379 446.439 80.2379L448.869 82.5779C447.829 83.7979 446.579 84.7479 445.119 85.4279C443.659 86.1079 442.059 86.4479 440.319 86.4479ZM451.787 64.4879H455.087V85.9679H451.787V64.4879ZM464.545 86.4479C462.685 86.4479 461.265 85.8979 460.285 84.7979C459.325 83.6779 458.845 82.1279 458.845 80.1479V70.6679H462.145V79.6979C462.145 80.9379 462.435 81.8679 463.015 82.4879C463.615 83.1079 464.395 83.4179 465.355 83.4179C466.135 83.4179 466.825 83.2179 467.425 82.8179C468.025 82.3979 468.485 81.8479 468.805 81.1679C469.125 80.4879 469.285 79.7579 469.285 78.9779V70.6679H472.585V85.9679H469.465V83.9879H469.285C468.865 84.7079 468.215 85.2979 467.335 85.7579C466.455 86.2179 465.525 86.4479 464.545 86.4479ZM484.586 86.4479C483.506 86.4479 482.536 86.2079 481.676 85.7279C480.816 85.2479 480.166 84.6679 479.726 83.9879H479.576V85.9679H476.426V64.4879H479.726V70.5179L479.576 72.6779H479.726C480.166 71.9779 480.816 71.3879 481.676 70.9079C482.536 70.4279 483.506 70.1879 484.586 70.1879C485.966 70.1879 487.216 70.5379 488.336 71.2379C489.456 71.9379 490.336 72.9079 490.976 74.1479C491.636 75.3679 491.966 76.7579 491.966 78.3179C491.966 79.8779 491.636 81.2779 490.976 82.5179C490.336 83.7379 489.456 84.6979 488.336 85.3979C487.216 86.0979 485.966 86.4479 484.586 86.4479ZM484.106 83.4179C484.906 83.4179 485.656 83.2079 486.356 82.7879C487.056 82.3679 487.616 81.7679 488.036 80.9879C488.456 80.2079 488.666 79.3179 488.666 78.3179C488.666 77.3179 488.456 76.4379 488.036 75.6779C487.616 74.8979 487.056 74.2979 486.356 73.8779C485.656 73.4579 484.906 73.2479 484.106 73.2479C483.306 73.2479 482.556 73.4579 481.856 73.8779C481.176 74.2979 480.626 74.8979 480.206 75.6779C479.786 76.4379 479.576 77.3179 479.576 78.3179C479.576 79.3179 479.786 80.2079 480.206 80.9879C480.626 81.7679 481.176 82.3679 481.856 82.7879C482.556 83.2079 483.306 83.4179 484.106 83.4179ZM500.404 86.4479C498.644 86.4479 497.204 86.0679 496.084 85.3079C494.964 84.5279 494.174 83.5379 493.714 82.3379L496.654 81.0479C497.014 81.8479 497.514 82.4579 498.154 82.8779C498.814 83.2979 499.564 83.5079 500.404 83.5079C501.224 83.5079 501.914 83.3679 502.474 83.0879C503.034 82.7879 503.314 82.3479 503.314 81.7679C503.314 81.2079 503.074 80.7679 502.594 80.4479C502.114 80.1279 501.374 79.8479 500.374 79.6079L498.544 79.1579C497.324 78.8579 496.314 78.3279 495.514 77.5679C494.714 76.8079 494.314 75.8479 494.314 74.6879C494.314 73.7879 494.574 72.9979 495.094 72.3179C495.634 71.6379 496.354 71.1179 497.254 70.7579C498.154 70.3779 499.134 70.1879 500.194 70.1879C501.614 70.1879 502.864 70.4779 503.944 71.0579C505.024 71.6179 505.804 72.4379 506.284 73.5179L503.404 74.7779C502.824 73.5979 501.764 73.0079 500.224 73.0079C499.484 73.0079 498.864 73.1579 498.364 73.4579C497.864 73.7579 497.614 74.1479 497.614 74.6279C497.614 75.0879 497.804 75.4679 498.184 75.7679C498.564 76.0479 499.124 76.2879 499.864 76.4879L502.114 77.0579C503.614 77.4379 504.744 78.0179 505.504 78.7979C506.284 79.5579 506.674 80.4979 506.674 81.6179C506.674 82.5779 506.394 83.4279 505.834 84.1679C505.294 84.8879 504.544 85.4479 503.584 85.8479C502.624 86.2479 501.564 86.4479 500.404 86.4479Z" fill="white"/>
<path d="M169.6 113.288C168.573 113.288 167.66 113.055 166.86 112.588C166.06 112.108 165.44 111.448 165 110.608C164.56 109.755 164.34 108.775 164.34 107.668V98.6479H166.04V107.748C166.04 108.908 166.347 109.855 166.96 110.588C167.573 111.308 168.453 111.668 169.6 111.668C170.747 111.668 171.627 111.308 172.24 110.588C172.867 109.855 173.18 108.908 173.18 107.748V98.6479H174.86V107.668C174.86 108.775 174.647 109.755 174.22 110.608C173.807 111.461 173.2 112.121 172.4 112.588C171.613 113.055 170.68 113.288 169.6 113.288ZM177.307 102.768H178.927V104.268H179.007C179.287 103.761 179.734 103.335 180.347 102.988C180.96 102.628 181.614 102.448 182.307 102.448C183.534 102.448 184.467 102.808 185.107 103.528C185.76 104.235 186.087 105.201 186.087 106.428V112.968H184.387V106.688C184.387 105.741 184.16 105.055 183.707 104.628C183.254 104.201 182.634 103.988 181.847 103.988C181.3 103.988 180.807 104.141 180.367 104.448C179.94 104.755 179.607 105.161 179.367 105.668C179.127 106.161 179.007 106.681 179.007 107.228V112.968H177.307V102.768ZM189.518 100.888C189.184 100.888 188.898 100.768 188.658 100.528C188.418 100.288 188.298 100.001 188.298 99.6679C188.298 99.3346 188.418 99.0546 188.658 98.8279C188.898 98.5879 189.184 98.4679 189.518 98.4679C189.851 98.4679 190.138 98.5879 190.378 98.8279C190.618 99.0546 190.738 99.3346 190.738 99.6679C190.738 100.001 190.618 100.288 190.378 100.528C190.151 100.768 189.864 100.888 189.518 100.888ZM188.678 102.768H190.358V112.968H188.678V102.768ZM191.91 102.768H193.73L196.89 110.968H196.93L200.13 102.768H201.91L197.75 112.968H196.03L191.91 102.768ZM207.55 113.288C206.577 113.288 205.703 113.055 204.93 112.588C204.157 112.121 203.55 111.481 203.11 110.668C202.683 109.841 202.47 108.915 202.47 107.888C202.47 106.901 202.67 105.995 203.07 105.168C203.483 104.341 204.063 103.681 204.81 103.188C205.557 102.695 206.423 102.448 207.41 102.448C208.41 102.448 209.277 102.675 210.01 103.128C210.743 103.568 211.303 104.181 211.69 104.968C212.09 105.755 212.29 106.655 212.29 107.668C212.29 107.868 212.27 108.041 212.23 108.188H204.17C204.21 108.961 204.397 109.615 204.73 110.148C205.063 110.681 205.483 111.081 205.99 111.348C206.51 111.615 207.05 111.748 207.61 111.748C208.917 111.748 209.923 111.135 210.63 109.908L212.07 110.608C211.63 111.435 211.03 112.088 210.27 112.568C209.523 113.048 208.617 113.288 207.55 113.288ZM210.49 106.788C210.463 106.361 210.343 105.935 210.13 105.508C209.917 105.081 209.577 104.721 209.11 104.428C208.657 104.135 208.083 103.988 207.39 103.988C206.59 103.988 205.91 104.248 205.35 104.768C204.803 105.275 204.443 105.948 204.27 106.788H210.49ZM214.28 102.768H215.9V104.408H215.98C216.18 103.848 216.566 103.388 217.14 103.028C217.713 102.655 218.313 102.468 218.94 102.468C219.406 102.468 219.806 102.535 220.14 102.668V104.508C219.713 104.295 219.233 104.188 218.7 104.188C218.206 104.188 217.753 104.328 217.34 104.608C216.926 104.888 216.593 105.268 216.34 105.748C216.1 106.215 215.98 106.721 215.98 107.268V112.968H214.28V102.768ZM224.949 113.288C223.856 113.288 222.942 113.035 222.209 112.528C221.476 112.008 220.956 111.348 220.649 110.548L222.169 109.868C222.422 110.481 222.796 110.955 223.289 111.288C223.796 111.621 224.349 111.788 224.949 111.788C225.589 111.788 226.136 111.661 226.589 111.408C227.042 111.141 227.269 110.768 227.269 110.288C227.269 109.861 227.089 109.521 226.729 109.268C226.369 109.001 225.802 108.775 225.029 108.588L223.789 108.268C222.976 108.068 222.309 107.728 221.789 107.248C221.269 106.768 221.009 106.148 221.009 105.388C221.009 104.801 221.182 104.288 221.529 103.848C221.889 103.395 222.362 103.048 222.949 102.808C223.536 102.568 224.169 102.448 224.849 102.448C225.742 102.448 226.536 102.641 227.229 103.028C227.936 103.415 228.436 103.955 228.729 104.648L227.249 105.328C226.796 104.421 225.989 103.968 224.829 103.968C224.269 103.968 223.776 104.101 223.349 104.368C222.936 104.621 222.729 104.948 222.729 105.348C222.729 105.721 222.876 106.028 223.169 106.268C223.462 106.495 223.902 106.681 224.489 106.828L225.969 107.208C226.969 107.461 227.722 107.841 228.229 108.348C228.736 108.841 228.989 109.448 228.989 110.168C228.989 110.795 228.809 111.348 228.449 111.828C228.089 112.295 227.602 112.655 226.989 112.908C226.376 113.161 225.696 113.288 224.949 113.288ZM231.744 100.888C231.411 100.888 231.124 100.768 230.884 100.528C230.644 100.288 230.524 100.001 230.524 99.6679C230.524 99.3346 230.644 99.0546 230.884 98.8279C231.124 98.5879 231.411 98.4679 231.744 98.4679C232.078 98.4679 232.364 98.5879 232.604 98.8279C232.844 99.0546 232.964 99.3346 232.964 99.6679C232.964 100.001 232.844 100.288 232.604 100.528C232.378 100.768 232.091 100.888 231.744 100.888ZM230.904 102.768H232.584V112.968H230.904V102.768ZM239.478 113.288C238.572 113.288 237.745 113.055 236.998 112.588C236.265 112.121 235.685 111.481 235.258 110.668C234.832 109.841 234.618 108.908 234.618 107.868C234.618 106.841 234.832 105.915 235.258 105.088C235.685 104.261 236.265 103.615 236.998 103.148C237.745 102.681 238.572 102.448 239.478 102.448C240.265 102.448 240.965 102.628 241.578 102.988C242.192 103.335 242.658 103.768 242.978 104.288H243.058L242.978 102.868V98.6479H244.678V112.968H243.058V111.468H242.978C242.658 111.975 242.192 112.408 241.578 112.768C240.965 113.115 240.265 113.288 239.478 113.288ZM239.678 111.748C240.278 111.748 240.832 111.588 241.338 111.268C241.858 110.948 242.272 110.495 242.578 109.908C242.898 109.321 243.058 108.641 243.058 107.868C243.058 107.095 242.898 106.415 242.578 105.828C242.272 105.241 241.858 104.788 241.338 104.468C240.832 104.148 240.278 103.988 239.678 103.988C239.092 103.988 238.538 104.148 238.018 104.468C237.498 104.788 237.078 105.248 236.758 105.848C236.452 106.435 236.298 107.108 236.298 107.868C236.298 108.628 236.452 109.308 236.758 109.908C237.078 110.495 237.498 110.948 238.018 111.268C238.538 111.588 239.092 111.748 239.678 111.748ZM250.352 113.288C249.605 113.288 248.939 113.141 248.352 112.848C247.765 112.555 247.312 112.155 246.992 111.648C246.672 111.128 246.512 110.541 246.512 109.888C246.512 108.808 246.919 107.968 247.732 107.368C248.545 106.755 249.572 106.448 250.812 106.448C251.425 106.448 251.992 106.515 252.512 106.648C253.045 106.781 253.452 106.935 253.732 107.108V106.488C253.732 105.728 253.465 105.121 252.932 104.668C252.399 104.201 251.725 103.968 250.912 103.968C250.339 103.968 249.812 104.095 249.332 104.348C248.852 104.588 248.472 104.928 248.192 105.368L246.912 104.408C247.312 103.795 247.859 103.315 248.552 102.968C249.259 102.621 250.039 102.448 250.892 102.448C252.279 102.448 253.365 102.815 254.152 103.548C254.952 104.268 255.352 105.255 255.352 106.508V112.968H253.732V111.508H253.652C253.359 112.001 252.919 112.421 252.332 112.768C251.745 113.115 251.085 113.288 250.352 113.288ZM250.512 111.788C251.085 111.788 251.619 111.641 252.112 111.348C252.605 111.055 252.999 110.661 253.292 110.168C253.585 109.675 253.732 109.135 253.732 108.548C253.412 108.335 253.019 108.161 252.552 108.028C252.085 107.895 251.592 107.828 251.072 107.828C250.139 107.828 249.432 108.021 248.952 108.408C248.485 108.795 248.252 109.295 248.252 109.908C248.252 110.468 248.465 110.921 248.892 111.268C249.319 111.615 249.859 111.788 250.512 111.788ZM261.939 113.288C261.033 113.288 260.206 113.055 259.459 112.588C258.726 112.121 258.146 111.481 257.719 110.668C257.293 109.841 257.079 108.908 257.079 107.868C257.079 106.841 257.293 105.915 257.719 105.088C258.146 104.261 258.726 103.615 259.459 103.148C260.206 102.681 261.033 102.448 261.939 102.448C262.726 102.448 263.426 102.628 264.039 102.988C264.653 103.335 265.119 103.768 265.439 104.288H265.519L265.439 102.868V98.6479H267.139V112.968H265.519V111.468H265.439C265.119 111.975 264.653 112.408 264.039 112.768C263.426 113.115 262.726 113.288 261.939 113.288ZM262.139 111.748C262.739 111.748 263.293 111.588 263.799 111.268C264.319 110.948 264.733 110.495 265.039 109.908C265.359 109.321 265.519 108.641 265.519 107.868C265.519 107.095 265.359 106.415 265.039 105.828C264.733 105.241 264.319 104.788 263.799 104.468C263.293 104.148 262.739 103.988 262.139 103.988C261.553 103.988 260.999 104.148 260.479 104.468C259.959 104.788 259.539 105.248 259.219 105.848C258.913 106.435 258.759 107.108 258.759 107.868C258.759 108.628 258.913 109.308 259.219 109.908C259.539 110.495 259.959 110.948 260.479 111.268C260.999 111.588 261.553 111.748 262.139 111.748ZM276.778 100.268H272.758V98.6479H282.478V100.268H278.478V112.968H276.778V100.268ZM287.218 113.288C286.245 113.288 285.371 113.055 284.598 112.588C283.825 112.121 283.218 111.481 282.778 110.668C282.351 109.841 282.138 108.915 282.138 107.888C282.138 106.901 282.338 105.995 282.738 105.168C283.151 104.341 283.731 103.681 284.478 103.188C285.225 102.695 286.091 102.448 287.078 102.448C288.078 102.448 288.945 102.675 289.678 103.128C290.411 103.568 290.971 104.181 291.358 104.968C291.758 105.755 291.958 106.655 291.958 107.668C291.958 107.868 291.938 108.041 291.898 108.188H283.838C283.878 108.961 284.065 109.615 284.398 110.148C284.731 110.681 285.151 111.081 285.658 111.348C286.178 111.615 286.718 111.748 287.278 111.748C288.585 111.748 289.591 111.135 290.298 109.908L291.738 110.608C291.298 111.435 290.698 112.088 289.938 112.568C289.191 113.048 288.285 113.288 287.218 113.288ZM290.158 106.788C290.131 106.361 290.011 105.935 289.798 105.508C289.585 105.081 289.245 104.721 288.778 104.428C288.325 104.135 287.751 103.988 287.058 103.988C286.258 103.988 285.578 104.248 285.018 104.768C284.471 105.275 284.111 105.948 283.938 106.788H290.158ZM298.665 113.288C297.678 113.288 296.792 113.055 296.005 112.588C295.218 112.108 294.605 111.461 294.165 110.648C293.725 109.821 293.505 108.895 293.505 107.868C293.505 106.841 293.725 105.915 294.165 105.088C294.605 104.261 295.218 103.615 296.005 103.148C296.792 102.681 297.678 102.448 298.665 102.448C299.772 102.448 300.698 102.708 301.445 103.228C302.205 103.735 302.745 104.415 303.065 105.268L301.525 105.908C301.272 105.281 300.892 104.808 300.385 104.488C299.892 104.155 299.292 103.988 298.585 103.988C297.985 103.988 297.425 104.155 296.905 104.488C296.385 104.808 295.965 105.261 295.645 105.848C295.338 106.435 295.185 107.108 295.185 107.868C295.185 108.628 295.338 109.301 295.645 109.888C295.965 110.475 296.385 110.935 296.905 111.268C297.425 111.588 297.985 111.748 298.585 111.748C299.305 111.748 299.925 111.581 300.445 111.248C300.965 110.915 301.352 110.441 301.605 109.828L303.125 110.468C302.778 111.308 302.218 111.988 301.445 112.508C300.685 113.028 299.758 113.288 298.665 113.288ZM304.963 102.768H306.583V104.268H306.663C306.943 103.761 307.39 103.335 308.003 102.988C308.616 102.628 309.27 102.448 309.963 102.448C311.19 102.448 312.123 102.808 312.763 103.528C313.416 104.235 313.743 105.201 313.743 106.428V112.968H312.043V106.688C312.043 105.741 311.816 105.055 311.363 104.628C310.91 104.201 310.29 103.988 309.503 103.988C308.956 103.988 308.463 104.141 308.023 104.448C307.596 104.755 307.263 105.161 307.023 105.668C306.783 106.161 306.663 106.681 306.663 107.228V112.968H304.963V102.768ZM320.874 113.288C319.874 113.288 318.974 113.048 318.174 112.568C317.374 112.088 316.747 111.435 316.294 110.608C315.854 109.781 315.634 108.868 315.634 107.868C315.634 106.868 315.854 105.955 316.294 105.128C316.747 104.301 317.374 103.648 318.174 103.168C318.974 102.688 319.874 102.448 320.874 102.448C321.874 102.448 322.774 102.688 323.574 103.168C324.374 103.648 324.994 104.301 325.434 105.128C325.887 105.955 326.114 106.868 326.114 107.868C326.114 108.868 325.887 109.781 325.434 110.608C324.994 111.435 324.374 112.088 323.574 112.568C322.774 113.048 321.874 113.288 320.874 113.288ZM320.874 111.748C321.501 111.748 322.081 111.595 322.614 111.288C323.161 110.968 323.594 110.515 323.914 109.928C324.247 109.341 324.414 108.655 324.414 107.868C324.414 107.081 324.247 106.395 323.914 105.808C323.594 105.221 323.161 104.775 322.614 104.468C322.081 104.148 321.501 103.988 320.874 103.988C320.247 103.988 319.661 104.148 319.114 104.468C318.567 104.775 318.127 105.221 317.794 105.808C317.474 106.395 317.314 107.081 317.314 107.868C317.314 108.655 317.474 109.341 317.794 109.928C318.127 110.515 318.567 110.968 319.114 111.288C319.661 111.595 320.247 111.748 320.874 111.748ZM327.99 98.6479H329.69V112.968H327.99V98.6479ZM336.812 113.288C335.812 113.288 334.912 113.048 334.112 112.568C333.312 112.088 332.685 111.435 332.232 110.608C331.792 109.781 331.572 108.868 331.572 107.868C331.572 106.868 331.792 105.955 332.232 105.128C332.685 104.301 333.312 103.648 334.112 103.168C334.912 102.688 335.812 102.448 336.812 102.448C337.812 102.448 338.712 102.688 339.512 103.168C340.312 103.648 340.932 104.301 341.372 105.128C341.825 105.955 342.052 106.868 342.052 107.868C342.052 108.868 341.825 109.781 341.372 110.608C340.932 111.435 340.312 112.088 339.512 112.568C338.712 113.048 337.812 113.288 336.812 113.288ZM336.812 111.748C337.438 111.748 338.018 111.595 338.552 111.288C339.098 110.968 339.532 110.515 339.852 109.928C340.185 109.341 340.352 108.655 340.352 107.868C340.352 107.081 340.185 106.395 339.852 105.808C339.532 105.221 339.098 104.775 338.552 104.468C338.018 104.148 337.438 103.988 336.812 103.988C336.185 103.988 335.598 104.148 335.052 104.468C334.505 104.775 334.065 105.221 333.732 105.808C333.412 106.395 333.252 107.081 333.252 107.868C333.252 108.655 333.412 109.341 333.732 109.928C334.065 110.515 334.505 110.968 335.052 111.288C335.598 111.595 336.185 111.748 336.812 111.748ZM337.112 98.2479H338.972L337.552 100.788H336.072L337.112 98.2479ZM348.506 117.608C347.306 117.608 346.312 117.328 345.526 116.768C344.752 116.208 344.232 115.535 343.966 114.748L345.506 114.088C345.732 114.675 346.106 115.148 346.626 115.508C347.159 115.881 347.786 116.068 348.506 116.068C349.559 116.068 350.372 115.761 350.946 115.148C351.532 114.535 351.826 113.668 351.826 112.548V111.408H351.746C351.412 111.928 350.939 112.355 350.326 112.688C349.726 113.008 349.039 113.168 348.266 113.168C347.386 113.168 346.579 112.941 345.846 112.488C345.126 112.035 344.552 111.401 344.126 110.588C343.699 109.775 343.486 108.848 343.486 107.808C343.486 106.781 343.699 105.861 344.126 105.048C344.552 104.221 345.126 103.581 345.846 103.128C346.579 102.675 347.386 102.448 348.266 102.448C349.039 102.448 349.726 102.615 350.326 102.948C350.939 103.268 351.412 103.695 351.746 104.228H351.826V102.768H353.446V112.568C353.446 114.208 352.992 115.455 352.086 116.308C351.179 117.175 349.986 117.608 348.506 117.608ZM348.506 111.628C349.119 111.628 349.672 111.475 350.166 111.168C350.672 110.861 351.072 110.421 351.366 109.848C351.672 109.275 351.826 108.595 351.826 107.808C351.826 107.008 351.672 106.321 351.366 105.748C351.072 105.175 350.672 104.741 350.166 104.448C349.672 104.141 349.119 103.988 348.506 103.988C347.892 103.988 347.332 104.141 346.826 104.448C346.319 104.755 345.912 105.195 345.606 105.768C345.312 106.341 345.166 107.021 345.166 107.808C345.166 108.595 345.312 109.281 345.606 109.868C345.912 110.441 346.319 110.881 346.826 111.188C347.332 111.481 347.892 111.628 348.506 111.628ZM356.959 100.888C356.626 100.888 356.339 100.768 356.099 100.528C355.859 100.288 355.739 100.001 355.739 99.6679C355.739 99.3346 355.859 99.0546 356.099 98.8279C356.339 98.5879 356.626 98.4679 356.959 98.4679C357.293 98.4679 357.579 98.5879 357.819 98.8279C358.059 99.0546 358.179 99.3346 358.179 99.6679C358.179 100.001 358.059 100.288 357.819 100.528C357.593 100.768 357.306 100.888 356.959 100.888ZM356.119 102.768H357.799V112.968H356.119V102.768ZM364.993 113.288C364.007 113.288 363.12 113.055 362.333 112.588C361.547 112.108 360.933 111.461 360.493 110.648C360.053 109.821 359.833 108.895 359.833 107.868C359.833 106.841 360.053 105.915 360.493 105.088C360.933 104.261 361.547 103.615 362.333 103.148C363.12 102.681 364.007 102.448 364.993 102.448C366.1 102.448 367.027 102.708 367.773 103.228C368.533 103.735 369.073 104.415 369.393 105.268L367.853 105.908C367.6 105.281 367.22 104.808 366.713 104.488C366.22 104.155 365.62 103.988 364.913 103.988C364.313 103.988 363.753 104.155 363.233 104.488C362.713 104.808 362.293 105.261 361.973 105.848C361.667 106.435 361.513 107.108 361.513 107.868C361.513 108.628 361.667 109.301 361.973 109.888C362.293 110.475 362.713 110.935 363.233 111.268C363.753 111.588 364.313 111.748 364.913 111.748C365.633 111.748 366.253 111.581 366.773 111.248C367.293 110.915 367.68 110.441 367.933 109.828L369.453 110.468C369.107 111.308 368.547 111.988 367.773 112.508C367.013 113.028 366.087 113.288 364.993 113.288ZM374.454 113.288C373.707 113.288 373.04 113.141 372.454 112.848C371.867 112.555 371.414 112.155 371.094 111.648C370.774 111.128 370.614 110.541 370.614 109.888C370.614 108.808 371.02 107.968 371.834 107.368C372.647 106.755 373.674 106.448 374.914 106.448C375.527 106.448 376.094 106.515 376.614 106.648C377.147 106.781 377.554 106.935 377.834 107.108V106.488C377.834 105.728 377.567 105.121 377.034 104.668C376.5 104.201 375.827 103.968 375.014 103.968C374.44 103.968 373.914 104.095 373.434 104.348C372.954 104.588 372.574 104.928 372.294 105.368L371.014 104.408C371.414 103.795 371.96 103.315 372.654 102.968C373.36 102.621 374.14 102.448 374.994 102.448C376.38 102.448 377.467 102.815 378.254 103.548C379.054 104.268 379.454 105.255 379.454 106.508V112.968H377.834V111.508H377.754C377.46 112.001 377.02 112.421 376.434 112.768C375.847 113.115 375.187 113.288 374.454 113.288ZM374.614 111.788C375.187 111.788 375.72 111.641 376.214 111.348C376.707 111.055 377.1 110.661 377.394 110.168C377.687 109.675 377.834 109.135 377.834 108.548C377.514 108.335 377.12 108.161 376.654 108.028C376.187 107.895 375.694 107.828 375.174 107.828C374.24 107.828 373.534 108.021 373.054 108.408C372.587 108.795 372.354 109.295 372.354 109.908C372.354 110.468 372.567 110.921 372.994 111.268C373.42 111.615 373.96 111.788 374.614 111.788ZM390.787 113.288C389.88 113.288 389.054 113.055 388.307 112.588C387.574 112.121 386.994 111.481 386.567 110.668C386.14 109.841 385.927 108.908 385.927 107.868C385.927 106.841 386.14 105.915 386.567 105.088C386.994 104.261 387.574 103.615 388.307 103.148C389.054 102.681 389.88 102.448 390.787 102.448C391.574 102.448 392.274 102.628 392.887 102.988C393.5 103.335 393.967 103.768 394.287 104.288H394.367L394.287 102.868V98.6479H395.987V112.968H394.367V111.468H394.287C393.967 111.975 393.5 112.408 392.887 112.768C392.274 113.115 391.574 113.288 390.787 113.288ZM390.987 111.748C391.587 111.748 392.14 111.588 392.647 111.268C393.167 110.948 393.58 110.495 393.887 109.908C394.207 109.321 394.367 108.641 394.367 107.868C394.367 107.095 394.207 106.415 393.887 105.828C393.58 105.241 393.167 104.788 392.647 104.468C392.14 104.148 391.587 103.988 390.987 103.988C390.4 103.988 389.847 104.148 389.327 104.468C388.807 104.788 388.387 105.248 388.067 105.848C387.76 106.435 387.607 107.108 387.607 107.868C387.607 108.628 387.76 109.308 388.067 109.908C388.387 110.495 388.807 110.948 389.327 111.268C389.847 111.588 390.4 111.748 390.987 111.748ZM402.941 113.288C401.967 113.288 401.094 113.055 400.321 112.588C399.547 112.121 398.941 111.481 398.501 110.668C398.074 109.841 397.861 108.915 397.861 107.888C397.861 106.901 398.061 105.995 398.461 105.168C398.874 104.341 399.454 103.681 400.201 103.188C400.947 102.695 401.814 102.448 402.801 102.448C403.801 102.448 404.667 102.675 405.401 103.128C406.134 103.568 406.694 104.181 407.081 104.968C407.481 105.755 407.681 106.655 407.681 107.668C407.681 107.868 407.661 108.041 407.621 108.188H399.561C399.601 108.961 399.787 109.615 400.121 110.148C400.454 110.681 400.874 111.081 401.381 111.348C401.901 111.615 402.441 111.748 403.001 111.748C404.307 111.748 405.314 111.135 406.021 109.908L407.461 110.608C407.021 111.435 406.421 112.088 405.661 112.568C404.914 113.048 404.007 113.288 402.941 113.288ZM405.881 106.788C405.854 106.361 405.734 105.935 405.521 105.508C405.307 105.081 404.967 104.721 404.501 104.428C404.047 104.135 403.474 103.988 402.781 103.988C401.981 103.988 401.301 104.248 400.741 104.768C400.194 105.275 399.834 105.948 399.661 106.788H405.881ZM409.67 98.6479H411.37V112.968H409.67V98.6479ZM418.877 98.6479H423.697C424.497 98.6479 425.237 98.8279 425.917 99.1879C426.597 99.5479 427.137 100.055 427.537 100.708C427.951 101.348 428.157 102.075 428.157 102.888C428.157 103.701 427.951 104.435 427.537 105.088C427.137 105.728 426.597 106.228 425.917 106.588C425.237 106.948 424.497 107.128 423.697 107.128H420.557V112.968H418.877V98.6479ZM423.737 105.508C424.271 105.508 424.737 105.381 425.137 105.128C425.551 104.875 425.871 104.548 426.097 104.148C426.324 103.748 426.437 103.328 426.437 102.888C426.437 102.448 426.324 102.028 426.097 101.628C425.871 101.228 425.551 100.901 425.137 100.648C424.737 100.395 424.271 100.268 423.737 100.268H420.557V105.508H423.737ZM433.898 113.288C432.924 113.288 432.051 113.055 431.278 112.588C430.504 112.121 429.898 111.481 429.458 110.668C429.031 109.841 428.818 108.915 428.818 107.888C428.818 106.901 429.018 105.995 429.418 105.168C429.831 104.341 430.411 103.681 431.158 103.188C431.904 102.695 432.771 102.448 433.758 102.448C434.758 102.448 435.624 102.675 436.358 103.128C437.091 103.568 437.651 104.181 438.038 104.968C438.438 105.755 438.638 106.655 438.638 107.668C438.638 107.868 438.618 108.041 438.578 108.188H430.518C430.558 108.961 430.744 109.615 431.078 110.148C431.411 110.681 431.831 111.081 432.338 111.348C432.858 111.615 433.398 111.748 433.958 111.748C435.264 111.748 436.271 111.135 436.978 109.908L438.418 110.608C437.978 111.435 437.378 112.088 436.618 112.568C435.871 113.048 434.964 113.288 433.898 113.288ZM436.838 106.788C436.811 106.361 436.691 105.935 436.478 105.508C436.264 105.081 435.924 104.721 435.458 104.428C435.004 104.135 434.431 103.988 433.738 103.988C432.938 103.988 432.258 104.248 431.698 104.768C431.151 105.275 430.791 105.948 430.618 106.788H436.838ZM440.627 102.768H442.247V104.408H442.327C442.527 103.848 442.914 103.388 443.487 103.028C444.061 102.655 444.661 102.468 445.287 102.468C445.754 102.468 446.154 102.535 446.487 102.668V104.508C446.061 104.295 445.581 104.188 445.047 104.188C444.554 104.188 444.101 104.328 443.687 104.608C443.274 104.888 442.941 105.268 442.687 105.748C442.447 106.215 442.327 106.721 442.327 107.268V112.968H440.627V102.768ZM451.827 113.288C450.601 113.288 449.661 112.928 449.007 112.208C448.367 111.488 448.047 110.481 448.047 109.188V102.768H449.747V108.928C449.747 109.901 449.967 110.615 450.407 111.068C450.847 111.521 451.441 111.748 452.187 111.748C452.761 111.748 453.267 111.595 453.707 111.288C454.161 110.981 454.507 110.581 454.747 110.088C455.001 109.595 455.127 109.075 455.127 108.528V102.768H456.827V112.968H455.207V111.488H455.127C454.847 111.995 454.401 112.421 453.787 112.768C453.174 113.115 452.521 113.288 451.827 113.288ZM452.727 98.2479H454.587L453.167 100.788H451.687L452.727 98.2479Z" fill="white"/>
<line x1="148.8" y1="125" x2="148.8" y2="55" stroke="white" stroke-width="1.4"/>
<rect x="90" y="94" width="47" height="10" rx="5" fill="white"/>
<rect x="105" y="112" width="32" height="10" rx="5" fill="white"/>
<rect x="90" y="58" width="47" height="10" rx="5" fill="white"/>
<rect x="113" y="76" width="24" height="10" rx="5" fill="white"/>
</svg>
